<svg xmlns="http://www.w3.org/2000/svg" width="169" height="49" viewBox="0 0 169 49" fill="none"><path fill-rule="evenodd" clip-rule="evenodd" d="M10.1166 0.391602H37.305C42.8923 0.391602 47.4216 4.97621 47.4216 10.6316V38.1516C47.4216 43.807 42.8923 48.3916 37.305 48.3916H10.1166C4.52936 48.3916 0 43.807 0 38.1516V10.6316C0 4.97621 4.52936 0.391602 10.1166 0.391602Z" fill="#21CB87"></path><path fill-rule="evenodd" clip-rule="evenodd" d="M59.8389 34.2354H61.6512V37.6323C62.0607 37.3836 62.7473 37.1346 63.5806 37.1346C65.6416 37.1346 66.6645 38.0134 66.6645 41.0298C66.6645 44.0907 65.5538 45.0133 63.0984 45.0133C62.0166 45.0133 60.6427 44.7931 59.8389 44.4708V34.2354ZM61.6504 43.2854C62.0746 43.4463 62.6302 43.5198 63.0977 43.5198C64.3841 43.5198 64.8077 43.1829 64.8077 41.0597C64.8077 39.2145 64.3985 38.731 63.1269 38.731C62.3227 38.731 61.6504 38.9948 61.6504 39.4343V43.2854ZM80.5889 34.2354H82.4012V37.6323C82.8107 37.3836 83.4973 37.1346 84.3306 37.1346C86.3916 37.1346 87.4145 38.0134 87.4145 41.0298C87.4145 44.0907 86.3038 45.0133 83.8484 45.0133C82.7666 45.0133 81.3927 44.7931 80.5889 44.4708V34.2354ZM82.4004 43.2854C82.8245 43.4462 83.3801 43.5198 83.8476 43.5198C85.1341 43.5198 85.5576 43.1829 85.5576 41.0596C85.5576 39.2145 85.1484 38.731 83.8769 38.731C83.0726 38.731 82.4004 38.9948 82.4004 39.4342V43.2854ZM93.246 37.2744H95.0595V44.3625C94.1383 44.7171 92.7194 45.0124 91.5345 45.0124C89.4433 45.0124 88.5068 44.171 88.5068 41.468V37.2744H90.3205V41.2767C90.3205 42.945 90.6278 43.3585 91.9002 43.3585C92.383 43.3585 92.8071 43.2995 93.246 43.1665V37.2744ZM102.977 44.4708C102.173 44.7931 100.799 45.0133 99.7323 45.0133C97.2768 45.0133 96.1514 44.1343 96.1514 41.0738C96.1514 38.057 97.3938 37.1345 99.3814 37.1345C100.229 37.1345 100.77 37.3395 101.165 37.5592V34.2354H102.977V44.4708ZM101.165 39.3899C101.165 38.9505 100.522 38.6724 99.7034 38.6724C98.4315 38.6724 98.0225 39.1853 98.0225 41.0447C98.0225 43.0801 98.4463 43.4612 99.7327 43.4612C100.229 43.4612 100.785 43.3734 101.165 43.2416V39.3899ZM104.342 41.2864C104.342 44.3513 105.424 45.2101 107.47 45.2101C108.318 45.2101 108.946 44.9731 109.355 44.7213C109.355 46.1131 108.551 46.4979 107.177 46.4979C106.476 46.4979 105.628 46.35 104.941 46.128L104.576 47.6086C105.219 47.8599 106.344 48.0523 107.192 48.0523C109.545 48.0523 111.167 47.4012 111.167 44.4549V37.8373C110.364 37.4966 108.99 37.2744 107.923 37.2744C105.467 37.2744 104.342 38.2071 104.342 41.2864ZM107.922 38.7856C108.376 38.7856 108.931 38.8745 109.355 39.0371V42.9161C109.355 43.3749 108.682 43.6267 107.878 43.6267C106.607 43.6267 106.212 43.1527 106.212 41.2729C106.212 39.1263 106.636 38.7856 107.922 38.7856ZM68.3027 41.195V37.2744H70.1729V41.2097C70.1729 43.115 70.5679 43.5954 71.8394 43.5954C72.6434 43.5954 73.3155 43.3401 73.3155 42.8752V37.2744H75.1284V44.4063C75.1284 47.3924 73.506 48.0523 71.1531 48.0523C70.3053 48.0523 69.1796 47.8573 68.5367 47.6026L68.9023 46.102C69.5887 46.327 70.4365 46.4769 71.138 46.4769C72.512 46.4769 73.3158 46.0869 73.3158 44.6763C72.9066 44.9314 72.2785 45.1717 71.4307 45.1717C69.3845 45.1717 68.3027 44.3013 68.3027 41.195ZM115.927 45.2888C116.698 45.2888 117.812 45.1247 118.569 44.8717L118.272 43.4115C117.678 43.5905 116.683 43.7242 116.149 43.7242C114.828 43.7242 114.205 43.3965 114.189 41.7731H119.074C119.208 38.0941 118.169 37.2744 115.778 37.2744C113.581 37.2744 112.26 38.2128 112.26 41.2517C112.26 44.3648 113.744 45.2888 115.927 45.2888ZM117.382 40.3593H114.205C114.323 39.1076 114.725 38.7354 115.883 38.7354C116.937 38.7354 117.323 39.0183 117.382 40.3593ZM122.666 42.3352V39.0334H125.118V37.4058H122.666V35.3408L120.866 36.1093V37.4058H119.632V39.0334H120.866V42.5007C120.866 44.7767 121.678 45.2897 123.333 45.2897C124.045 45.2897 124.843 45.1387 125.365 44.9428L125.047 43.4657C124.683 43.5858 124.262 43.6761 123.783 43.6761C122.912 43.6761 122.666 43.2844 122.666 42.3352ZM128.543 34.2354H126.73V44.4708C127.535 44.7931 128.908 45.0133 129.99 45.0133C132.446 45.0133 133.556 44.0907 133.556 41.0298C133.556 38.0134 132.533 37.1346 130.472 37.1346C129.639 37.1346 128.952 37.3836 128.543 37.6323V34.2354ZM129.99 43.5198C129.522 43.5198 128.967 43.4462 128.543 43.2854V39.4342C128.543 38.9948 129.215 38.731 130.019 38.731C131.291 38.731 131.7 39.2145 131.7 41.0596C131.7 43.1829 131.276 43.5198 129.99 43.5198ZM140.928 44.6925C139.986 45.0648 138.587 45.2888 137.541 45.2888C135.17 45.2888 134.375 44.737 134.375 42.7563C134.375 40.611 135.568 40.2683 137.32 40.2683C137.953 40.2683 138.542 40.3431 139.175 40.4769C139.175 39.1512 138.866 38.8235 137.305 38.8235C136.481 38.8235 135.657 38.9726 135.038 39.1961L134.699 37.6765C135.48 37.4679 136.613 37.2744 137.689 37.2744C139.912 37.2744 140.928 37.9599 140.928 40.2239V44.6925ZM139.176 41.7275C138.764 41.6383 138.234 41.5938 137.689 41.5938C136.658 41.5938 136.29 41.713 136.29 42.6809C136.29 43.7091 136.57 43.8727 137.674 43.8727C138.204 43.8727 138.749 43.7685 139.176 43.6198V41.7275ZM149.118 45.0133C147.547 42.5065 146.442 41.1412 146.063 40.9027C146.346 40.6772 146.952 39.9194 147.801 38.8583L147.802 38.8573C148.133 38.4441 148.5 37.985 148.899 37.4935H146.761C146.374 37.9502 146.036 38.3847 145.727 38.7813L145.727 38.782L145.727 38.7821C145.189 39.4735 144.741 40.0493 144.276 40.4256V34.2354H142.565V45.0133H144.276V41.2803C144.777 41.6807 145.29 42.4599 145.958 43.4744C146.266 43.942 146.606 44.4597 146.994 45.0133H149.118ZM155.701 44.8717C154.944 45.1247 153.83 45.2888 153.059 45.2888C150.876 45.2888 149.392 44.3648 149.392 41.2517C149.392 38.2128 150.713 37.2744 152.91 37.2744C155.3 37.2744 156.339 38.0941 156.206 41.7731H151.321C151.336 43.3965 151.959 43.7242 153.281 43.7242C153.815 43.7242 154.81 43.5905 155.404 43.4115L155.701 44.8717ZM151.335 40.3593H154.513C154.453 39.0183 154.067 38.7354 153.013 38.7354C151.855 38.7354 151.454 39.1076 151.335 40.3593ZM157.31 37.496H159.08V38.0572C159.337 37.6438 159.894 37.2744 160.935 37.2744C161.178 37.2744 161.421 37.2892 161.678 37.3189V39.0614C161.421 39.002 161.064 38.958 160.75 38.958C159.865 38.958 159.08 39.2534 159.08 39.7998V45.0124H157.31V37.496ZM165.679 38.779C166.438 38.779 167.285 38.9427 167.879 39.1368L168.281 37.6915C167.522 37.438 166.526 37.2744 165.738 37.2744C163.82 37.2744 162.497 37.8258 162.497 39.7919C162.497 41.356 163.389 41.8179 165.055 41.9517C166.378 42.0709 166.675 42.3243 166.675 42.8606C166.675 43.6498 166.199 43.784 165.188 43.784C164.43 43.784 163.494 43.6205 162.943 43.4264L162.557 44.8862C163.27 45.1397 164.46 45.2888 165.263 45.2888C167.196 45.2888 168.504 44.7225 168.504 42.7563C168.504 41.2367 167.701 40.671 165.872 40.4769C164.638 40.3581 164.311 40.1795 164.311 39.6576C164.311 38.8684 164.772 38.779 165.679 38.779Z" fill="#8E8E93"></path><path fill-rule="evenodd" clip-rule="evenodd" d="M120.569 0.949219H117.315C116.994 0.949219 116.733 1.2085 116.733 1.52833V24.1421C116.733 25.2642 117.136 26.3493 117.868 27.2019C118.583 28.0352 119.629 28.5149 120.729 28.5149H123.126C123.318 28.5149 123.474 28.3594 123.474 28.1675V25.2287C123.474 25.0368 123.318 24.8812 123.126 24.8812H122.428C121.722 24.8812 121.15 24.3108 121.15 23.6072V1.52833C121.15 1.2085 120.89 0.949219 120.569 0.949219ZM58.5647 0.949673H62.451C62.9209 0.949673 63.3314 1.27096 63.4495 1.73115L68.4394 21.17H68.6873L74.5966 4.12314C74.7739 3.61182 75.2509 3.26956 75.7864 3.26956H78.6692C79.2074 3.26956 79.6863 3.61527 79.8614 4.13026L85.6568 21.17H85.9043L91.1222 1.72011C91.2442 1.26535 91.6521 0.949673 92.1178 0.949673H95.6263C95.8163 0.949673 95.9702 1.10547 95.9702 1.29766C95.9702 1.33043 95.9656 1.36304 95.9566 1.39452L88.4707 27.5327C88.2577 28.2765 87.5845 28.7883 86.8193 28.7883H84.8276C84.0913 28.7883 83.4368 28.3139 83.1998 27.6085L77.1959 9.73805H76.9536L70.9497 27.6085C70.7127 28.3139 70.0582 28.7883 69.3219 28.7883H67.4808C66.718 28.7883 66.0464 28.2798 65.8312 27.5392L58.2348 1.39582C58.1812 1.21144 58.2855 1.01802 58.4677 0.963806C58.4992 0.954432 58.5318 0.949673 58.5647 0.949673ZM162.484 4.49658H159.154C158.838 4.49658 158.581 4.75596 158.581 5.07591V9.95861H155.096C155.043 9.95861 154.99 9.97113 154.942 9.99518C154.772 10.0809 154.703 10.2896 154.788 10.4614L156.247 13.4143C156.344 13.6108 156.543 13.735 156.76 13.735H158.581V22.4958C158.581 23.5887 158.665 24.5503 158.833 25.3804C159 26.2009 159.306 26.8844 159.751 27.4324C160.194 27.9783 160.804 28.3853 161.582 28.6537C162.366 28.9242 163.38 29.0601 164.623 29.0601C165.167 29.0601 165.796 29.0146 166.511 28.9235C167.032 28.857 167.493 28.7523 167.894 28.6096C168.122 28.5283 168.234 28.4139 168.234 28.1279V25.5584C168.234 25.3768 168.178 25.2546 168.079 25.185C167.817 25.0459 167.736 25.044 167.193 25.1443C166.69 25.2372 166.225 25.2837 165.8 25.2837C164.719 25.2837 163.983 24.9943 163.605 24.4057C163.239 23.8347 163.057 23.0666 163.057 22.1028V13.735H167.66C167.977 13.735 168.234 13.4756 168.234 13.1557V10.5379C168.234 10.218 167.977 9.95861 167.66 9.95861H163.057V5.07591C163.057 4.75596 162.801 4.49658 162.484 4.49658ZM99.9555 10.1147C101.339 9.6453 102.768 9.41064 104.243 9.41064C105.562 9.41064 106.672 9.56027 107.572 9.85851C108.473 10.157 109.218 10.5388 109.807 11.0034C110.394 11.4671 110.847 12.0004 111.165 12.6038C111.486 13.213 111.718 13.8281 111.859 14.4491C112.001 15.0737 112.085 15.6782 112.11 16.2628C112.136 16.8529 112.149 17.3707 112.149 17.8159V27.7789C112.149 28.2258 111.79 28.5881 111.346 28.5881H108.956C108.513 28.5881 108.153 28.2258 108.153 27.7789V26.4007H107.858L107.824 26.4544C107.151 27.5247 106.746 27.8874 105.609 28.4285C104.618 28.9005 103.496 29.0614 101.895 29.0614C101.045 29.0614 100.214 28.9446 99.4027 28.7109C98.5938 28.4779 97.8758 28.1289 97.2479 27.6638C96.6221 27.2003 96.1179 26.6212 95.7346 25.9256C95.3532 25.2335 95.1621 24.4243 95.1621 23.4965C95.1621 22.4881 95.341 21.6315 95.6974 20.9256C96.0552 20.2171 96.5337 19.6254 97.1335 19.1493C97.7365 18.6708 98.4363 18.2889 99.2334 18.0037C100.036 17.7168 100.87 17.5015 101.737 17.358C102.607 17.2141 103.483 17.1225 104.365 17.0832C105.25 17.0439 106.083 17.0242 106.864 17.0242H108.153V16.3958C108.153 15.1769 107.733 14.2541 106.893 13.6395C106.063 13.0324 105.009 12.7298 103.734 12.7298C102.728 12.7298 101.787 12.9102 100.912 13.271C100.227 13.5536 99.6146 13.9145 99.0751 14.3537C98.881 14.5118 98.5601 14.5312 98.3577 14.2845C97.5213 13.4042 97.0108 12.856 96.8231 12.6363C96.6108 12.3878 96.6318 12.1287 96.8159 11.9494C97.6876 11.1005 98.6274 10.5652 99.9555 10.1147ZM141.783 10.1134C143.028 9.64491 144.351 9.41064 145.752 9.41064C147.048 9.41064 148.232 9.63784 149.305 10.0919C150.377 10.5455 151.293 11.1996 152.055 12.0546C152.817 12.9104 153.412 13.9685 153.84 15.2298C154.268 16.4927 154.482 17.9463 154.482 19.5911V19.9681C154.482 20.415 154.121 20.7773 153.677 20.7773H140.081L140.095 20.9057C140.256 22.3544 140.82 23.4865 141.787 24.2954C142.752 25.1021 143.918 25.5056 145.281 25.5056C146.724 25.5056 147.965 25.3004 148.78 24.8399C149.615 24.3681 150.054 24.0582 150.476 23.6012C150.653 23.4103 150.882 23.3881 151.194 23.5439L153.209 25.1679C153.457 25.3293 153.446 25.5592 153.296 25.7297C152.297 26.8677 151.196 27.6917 149.992 28.2027C148.644 28.7753 147.231 29.0614 145.752 29.0614C144.351 29.0614 143.028 28.8272 141.783 28.3587C140.539 27.8906 139.465 27.2281 138.559 26.371C137.653 25.5138 136.935 24.4813 136.403 23.2723C135.873 22.0645 135.607 20.7195 135.607 19.236C135.607 17.7526 135.873 16.4075 136.403 15.1998C136.935 13.9908 137.653 12.9583 138.559 12.1011C139.465 11.244 140.539 10.5815 141.783 10.1134ZM127.56 0.949219H130.814C131.135 0.949219 131.395 1.2085 131.395 1.52833V23.6072C131.395 24.3108 131.967 24.8812 132.673 24.8812H133.371C133.563 24.8812 133.719 25.0368 133.719 25.2287V28.1675C133.719 28.3594 133.563 28.5149 133.371 28.5149H130.974C129.874 28.5149 128.828 28.0352 128.113 27.2019C127.381 26.3493 126.979 25.2642 126.979 24.1421V1.52833C126.979 1.2085 127.239 0.949219 127.56 0.949219ZM107.834 20.0547V21.2537C107.834 22.6475 107.434 23.7541 106.632 24.5668C105.828 25.3815 104.589 25.7862 102.922 25.7862C102.516 25.7862 102.111 25.7382 101.705 25.6425C101.295 25.5455 100.925 25.3859 100.596 25.1637C100.266 24.9408 99.9977 24.6686 99.791 24.3474C99.5802 24.02 99.4756 23.6172 99.4756 23.1413C99.4756 22.4109 99.7422 21.8351 100.273 21.4245C100.788 21.0266 101.416 20.7255 102.157 20.5208C102.892 20.3178 103.673 20.1893 104.5 20.1353C105.253 20.086 105.94 20.0594 106.56 20.0552L106.727 20.0547H107.834ZM148.826 13.9707C147.96 13.1132 146.757 12.6855 145.226 12.6855C143.773 12.6855 142.617 13.1209 141.763 13.9926C140.914 14.8599 140.396 16.0191 140.209 17.4661L140.191 17.5982H150.168L150.166 17.4791L150.163 17.3599C150.115 15.9367 149.669 14.8048 148.826 13.9707Z" fill="#303030"></path><path d="M7.27734 14.5174C7.27734 12.2283 9.10609 10.3726 11.3602 10.3726H36.7652C39.0201 10.3726 40.8481 12.2279 40.8481 14.5174V34.5049C40.8481 36.7941 39.0194 38.6498 36.7652 38.6498H11.3602C9.10531 38.6498 7.27734 36.7944 7.27734 34.5049V14.5174Z" fill="white"></path><path d="M11.2783 12.0361C9.97636 12.0361 8.9209 13.1079 8.9209 14.4299V34.5929C8.9209 35.9149 9.97636 36.9866 11.2783 36.9866H36.8476C38.1496 36.9866 39.205 35.9149 39.205 34.5929V14.4299C39.205 13.1079 38.1496 12.0361 36.8476 12.0361H11.2783Z" fill="url(#paint0_linear_573_6957)"></path><path d="M39.6748 19.4009H40.7312C41.3147 19.4009 41.7877 19.8749 41.7877 20.4583V28.5613C41.7877 29.1453 41.3148 29.6187 40.7312 29.6187H39.6748V19.4009Z" fill="#E3750C"></path><path d="M26.2939 24.5098C26.2939 21.6882 28.5602 19.4009 31.3565 19.4009H39.764C40.3633 19.4009 40.8491 19.8903 40.8491 20.4956V28.524C40.8491 29.1286 40.3628 29.6187 39.764 29.6187H31.3565C28.5605 29.6187 26.2939 27.332 26.2939 24.5098Z" fill="#FD9F45"></path><path d="M31.458 27.0054C32.7545 27.0054 33.8056 25.9415 33.8056 24.6292C33.8056 23.3168 32.7545 22.2529 31.458 22.2529C30.1614 22.2529 29.1104 23.3168 29.1104 24.6292C29.1104 25.9415 30.1614 27.0054 31.458 27.0054Z" fill="white"></path><defs><linearGradient id="paint0_linear_573_6957" x1="39.8558" y1="36.9866" x2="39.8558" y2="13.3611" gradientUnits="userSpaceOnUse"><stop stop-color="#F4F1FA"></stop><stop offset="1" stop-color="#FFFEFF"></stop></linearGradient></defs></svg>